<svg width="45" height="46" viewBox="0 0 45 46" fill="none" xmlns="http://www.w3.org/2000/svg">
<path d="M40.1786 0.316406H4.82143C3.54271 0.316406 2.31636 0.83033 1.41216 1.74512C0.50797 2.65991 0 3.90063 0 5.19434L0 40.9658C0 42.2595 0.50797 43.5002 1.41216 44.415C2.31636 45.3298 3.54271 45.8438 4.82143 45.8438H18.6077V30.3655H12.2796V23.0801H18.6077V17.5274C18.6077 11.2115 22.3242 7.72273 28.0165 7.72273C30.7426 7.72273 33.5933 8.21459 33.5933 8.21459V14.4136H30.4523C27.3576 14.4136 26.3923 16.3567 26.3923 18.3495V23.0801H33.301L32.1961 30.3655H26.3923V45.8438H40.1786C41.4573 45.8438 42.6836 45.3298 43.5878 44.415C44.492 43.5002 45 42.2595 45 40.9658V5.19434C45 3.90063 44.492 2.65991 43.5878 1.74512C42.6836 0.83033 41.4573 0.316406 40.1786 0.316406Z" fill="white"/>
</svg>
